<svg width="42" height="32" viewBox="0 0 42 32" fill="none" xmlns="http://www.w3.org/2000/svg">
<path d="M10.3267 14.2809C10.6956 11.4841 13.1678 8.95261 17.69 6.74662L18.5044 6.34934L15.1658 0.185516L14.4121 0.567536C4.84895 5.41517 0 12.266 0 20.93C0 23.9194 0.948937 26.5012 2.82064 28.604C4.7186 30.7361 7.02188 31.8172 9.66697 31.8172C12.0437 31.8172 14.059 30.9709 15.657 29.3014C17.2445 27.6428 18.0495 25.5826 18.0495 23.1779C18.0495 20.9056 17.2364 18.8806 15.6328 17.1591C14.2184 15.6406 12.4362 14.6747 10.3267 14.2809ZM14.4022 28.1004C13.127 29.4327 11.5781 30.0802 9.66697 30.0802C7.50914 30.0802 5.69412 29.2196 4.11821 27.4491C2.51582 25.649 1.73685 23.5166 1.73685 20.9299C1.73685 16.959 2.85502 13.374 5.0601 10.2746C7.16412 7.31748 10.3199 4.70667 14.4478 2.50626L16.1203 5.59408C11.0901 8.23007 8.5415 11.3988 8.5415 15.0214V15.7971L9.31219 15.8844C11.3882 16.1194 13.0398 16.9236 14.3619 18.3429C15.6744 19.752 16.3126 21.3337 16.3126 23.1778C16.3127 25.1472 15.6877 26.7573 14.4022 28.1004Z" fill="#8643DC"/>
<path d="M33.8958 14.2834C34.2603 11.4843 36.7122 8.95149 41.1981 6.74526L42 6.35094L38.7443 0.182678L37.9832 0.566748C28.3763 5.41414 23.5053 12.2653 23.5053 20.9299C23.5053 23.9212 24.4664 26.5045 26.3617 28.6078C28.2807 30.7373 30.5935 31.817 33.2364 31.817C35.6161 31.817 37.6222 30.9691 39.1989 29.2966C40.7621 27.6386 41.5547 25.58 41.5547 23.1778C41.5547 20.9054 40.7416 18.8804 39.1382 17.159C37.7267 15.6438 35.9659 14.6787 33.8958 14.2834ZM37.9353 28.1051C36.6821 29.4342 35.1452 30.0803 33.2364 30.0803C31.0765 30.0803 29.2498 29.2184 27.652 27.4452C26.0303 25.6456 25.2421 23.5145 25.2421 20.9299C25.2421 16.9597 26.3653 13.3753 28.5802 10.2762C30.6936 7.31972 33.8629 4.70933 38.0084 2.50917L39.6355 5.59223C34.6416 8.22912 32.1112 11.3985 32.1112 15.0215V15.7954L32.8799 15.8842C34.9133 16.1189 36.5446 16.9231 37.8673 18.3429C39.1799 19.752 39.8179 21.3334 39.8179 23.1778C39.818 25.1497 39.2021 26.7615 37.9353 28.1051Z" fill="#8643DC"/>
</svg>
